<svg width="200" height="200" viewBox="0 0 200 200" xmlns="http://www.w3.org/2000/svg">
  <!-- Background Circle -->
  <defs>
    <linearGradient id="bgGradient" x1="0%" y1="0%" x2="100%" y2="100%">
      <stop offset="0%" style="stop-color:#007acc;stop-opacity:1" />
      <stop offset="100%" style="stop-color:#005a9e;stop-opacity:1" />
    </linearGradient>
    <linearGradient id="boxGradient" x1="0%" y1="0%" x2="0%" y2="100%">
      <stop offset="0%" style="stop-color:#ffffff;stop-opacity:1" />
      <stop offset="100%" style="stop-color:#e6f7ff;stop-opacity:1" />
    </linearGradient>
  </defs>
  
  <!-- Main Circle Background -->
  <circle cx="100" cy="100" r="95" fill="url(#bgGradient)" />
  
  <!-- Warehouse Building Base -->
  <rect x="50" y="120" width="100" height="50" fill="#ffffff" opacity="0.95" rx="3"/>
  
  <!-- Warehouse Roof -->
  <path d="M 45 120 L 100 85 L 155 120 Z" fill="#ffffff" opacity="0.95"/>
  
  <!-- Box Stack (3 boxes) -->
  <!-- Bottom Box -->
  <g>
    <rect x="65" y="100" width="25" height="20" fill="url(#boxGradient)" stroke="#005a9e" stroke-width="2" rx="2"/>
    <line x1="65" y1="105" x2="90" y2="105" stroke="#007acc" stroke-width="1" opacity="0.3"/>
    <line x1="65" y1="110" x2="90" y2="110" stroke="#007acc" stroke-width="1" opacity="0.3"/>
  </g>
  
  <!-- Middle Box -->
  <g>
    <rect x="95" y="95" width="25" height="20" fill="url(#boxGradient)" stroke="#005a9e" stroke-width="2" rx="2"/>
    <line x1="95" y1="100" x2="120" y2="100" stroke="#007acc" stroke-width="1" opacity="0.3"/>
    <line x1="95" y1="105" x2="120" y2="105" stroke="#007acc" stroke-width="1" opacity="0.3"/>
  </g>
  
  <!-- Top Box -->
  <g>
    <rect x="110" y="105" width="25" height="20" fill="url(#boxGradient)" stroke="#005a9e" stroke-width="2" rx="2"/>
    <line x1="110" y1="110" x2="135" y2="110" stroke="#007acc" stroke-width="1" opacity="0.3"/>
    <line x1="110" y1="115" x2="135" y2="115" stroke="#007acc" stroke-width="1" opacity="0.3"/>
  </g>
  
  <!-- Warehouse Door -->
  <rect x="85" y="135" width="30" height="35" fill="#005a9e" opacity="0.8" rx="2"/>
  <rect x="95" y="140" width="10" height="15" fill="#ffffff" opacity="0.4" rx="1"/>
  
  <!-- Window -->
  <rect x="120" y="135" width="15" height="15" fill="#ffffff" opacity="0.3" rx="1"/>
  
  <!-- Checkmark (Success/Tracking) -->
  <circle cx="150" cy="60" r="18" fill="#52c41a" opacity="0.95"/>
  <path d="M 142 60 L 147 66 L 158 54" stroke="#ffffff" stroke-width="3" fill="none" stroke-linecap="round" stroke-linejoin="round"/>
  
  <!-- Barcode Lines (WMS Theme) -->
  <g opacity="0.2">
    <line x1="60" y1="155" x2="60" y2="165" stroke="#ffffff" stroke-width="2"/>
    <line x1="65" y1="155" x2="65" y2="165" stroke="#ffffff" stroke-width="1"/>
    <line x1="68" y1="155" x2="68" y2="165" stroke="#ffffff" stroke-width="2"/>
    <line x1="72" y1="155" x2="72" y2="165" stroke="#ffffff" stroke-width="1"/>
    <line x1="75" y1="155" x2="75" y2="165" stroke="#ffffff" stroke-width="2"/>
  </g>
</svg>

